<?xml version="1.0" encoding="iso-8859-1"?>
<!-- Generator: Adobe Illustrator 19.0.0, SVG Export Plug-In . SVG Version: 6.00 Build 0)  -->
<svg xmlns="http://www.w3.org/2000/svg" xmlns:xlink="http://www.w3.org/1999/xlink" version="1.1" id="Layer_1" x="0px" y="0px" viewBox="0 0 512 512" style="enable-background:new 0 0 512 512;" xml:space="preserve" width="512" height="512">
<g id="XMLID_1579_">
	<g id="XMLID_1150_">
		<path id="XMLID_1190_" d="M434.938,398.641c0.002-0.001,0.004-0.003,0.006-0.004l-66.333-64c-1.864-1.799-4.354-2.804-6.943-2.804    H150.333c-2.59,0-5.079,1.005-6.943,2.804l-66.333,64c0.001,0.002,0.003,0.003,0.005,0.005c-1.885,1.819-3.062,4.366-3.062,7.191    v96c0,5.522,4.478,10,10,10h344c5.522,0,10-4.478,10-10v-96C438,403.007,436.823,400.46,434.938,398.641z M154.371,351.833    h203.258l45.604,44H108.767L154.371,351.833z M418,491.833H94v-76h324V491.833z"/>
		<path id="XMLID_1195_" d="M329,363.833H223c-5.522,0-10,4.478-10,10s4.478,10,10,10h106c5.522,0,10-4.478,10-10    S334.522,363.833,329,363.833z"/>
		<path id="XMLID_1196_" d="M268.451,69.643l-19.834,19.834l-5.068-5.069c-3.904-3.905-10.234-3.905-14.143,0    c-3.905,3.905-3.905,10.237,0,14.142l12.14,12.14c1.875,1.875,4.419,2.929,7.071,2.929s5.195-1.054,7.071-2.929l26.905-26.905    c3.905-3.905,3.905-10.237,0-14.142C278.688,65.739,272.358,65.739,268.451,69.643z"/>
		<path id="XMLID_1197_" d="M192,180.167h128c5.522,0,10-4.477,10-10v-40c0-5.523-4.478-10-10-10s-10,4.477-10,10v30H202v-140h108    v30c0,5.523,4.478,10,10,10s10-4.477,10-10v-40c0-5.523-4.478-10-10-10H192c-5.522,0-10,4.477-10,10v160    C182,175.69,186.478,180.167,192,180.167z"/>
		<path id="XMLID_1199_" d="M390.937,209.725l3.391,12.653l-12.652,3.39c-5.335,1.429-8.501,6.913-7.071,12.248    c1.197,4.468,5.237,7.414,9.653,7.414c0.856,0,1.728-0.111,2.594-0.343l12.653-3.39l3.39,12.653    c1.197,4.468,5.237,7.414,9.653,7.414c0.856,0,1.728-0.111,2.594-0.343c5.335-1.43,8.501-6.913,7.071-12.248l-3.39-12.652    l12.652-3.39c5.335-1.429,8.501-6.913,7.071-12.248c-1.43-5.334-6.917-8.502-12.247-7.071l-12.652,3.39l-3.391-12.653    c-1.43-5.334-6.913-8.5-12.247-7.071C392.673,198.907,389.507,204.39,390.937,209.725z"/>
		<path id="XMLID_1203_" d="M511.659,189.578c-0.687-2.562-2.362-4.746-4.659-6.072l-110.852-64c-4.784-2.762-10.9-1.123-13.66,3.66    l-80,138.564c-1.326,2.297-1.686,5.026-0.999,7.588c0.687,2.563,2.362,4.746,4.659,6.072l110.852,64    c1.575,0.909,3.294,1.342,4.99,1.342c3.456,0,6.818-1.794,8.67-5.002l80-138.564C511.986,194.87,512.346,192.14,511.659,189.578z     M418.34,317.071l-93.531-54l70-121.244l93.531,54L418.34,317.071z"/>
		<path id="XMLID_1204_" d="M105.759,243.823c1.74,0,3.467-0.455,5-1.34c2.297-1.326,3.973-3.51,4.659-6.072l9.848-36.753    c1.43-5.334-1.736-10.818-7.071-12.247c-5.339-1.43-10.817,1.737-12.247,7.071l-7.26,27.093l-6.925-1.855    c-5.331-1.431-10.817,1.737-12.247,7.071c-1.43,5.335,1.736,10.818,7.071,12.248l16.584,4.444    C104.022,243.71,104.892,243.823,105.759,243.823z"/>
		<path id="XMLID_1207_" d="M90.01,329.765c1.696,0,3.416-0.433,4.99-1.342l110.852-64c2.297-1.326,3.973-3.51,4.659-6.072    c0.687-2.562,0.327-5.291-0.999-7.588l-80-138.564c-2.761-4.783-8.877-6.421-13.66-3.66L5,172.539    c-2.297,1.326-3.973,3.51-4.659,6.072c-0.687,2.562-0.327,5.292,0.999,7.588l80,138.564    C83.192,327.971,86.553,329.765,90.01,329.765z M117.191,130.859l70,121.244l-93.531,54l-70-121.244L117.191,130.859z"/>
		<path id="XMLID_1213_" d="M183,363.83c-2.63,0-5.21,1.069-7.07,2.93s-2.93,4.44-2.93,7.07c0,2.64,1.069,5.21,2.93,7.069    c1.86,1.87,4.44,2.931,7.07,2.931s5.21-1.061,7.069-2.931c1.86-1.859,2.931-4.43,2.931-7.069c0-2.63-1.07-5.21-2.931-7.07    C188.21,364.9,185.63,363.83,183,363.83z"/>
		<path id="XMLID_1215_" d="M320,80.17c-2.63,0-5.21,1.06-7.07,2.92c-1.86,1.87-2.93,4.44-2.93,7.08c0,2.63,1.069,5.21,2.93,7.07    s4.44,2.93,7.07,2.93s5.21-1.07,7.069-2.93c1.86-1.86,2.931-4.44,2.931-7.07c0-2.64-1.07-5.21-2.931-7.08    C325.21,81.23,322.63,80.17,320,80.17z"/>
	</g>
</g>















</svg>
