<?xml version="1.0" encoding="iso-8859-1"?>
<!-- Generator: Adobe Illustrator 19.0.0, SVG Export Plug-In . SVG Version: 6.00 Build 0)  -->
<svg version="1.1" id="Capa_1" xmlns="http://www.w3.org/2000/svg" xmlns:xlink="http://www.w3.org/1999/xlink" x="0px" y="0px"
	 viewBox="0 0 469.333 469.333" style="enable-background:new 0 0 469.333 469.333;" xml:space="preserve">
<g>
	<g>
		<path d="M463.083,432.917l-70.25-70.25l27.583-27.583c8.333-8.333,8.333-21.833,0-30.167c-8.333-8.333-21.833-8.333-30.167,0
			L362.667,332.5l-39.074-39.074c24.388-30.885,39.074-69.773,39.074-112.092C362.667,81.344,281.323,0,181.333,0
			S0,81.344,0,181.333s81.344,181.333,181.333,181.333c42.319,0,81.207-14.686,112.092-39.074l39.074,39.074l-27.583,27.583
			c-8.333,8.333-8.333,21.833,0,30.167c4.167,4.167,9.625,6.25,15.083,6.25c5.458,0,10.917-2.083,15.083-6.25l27.583-27.583
			l70.25,70.25c4.167,4.167,9.625,6.25,15.083,6.25c5.458,0,10.917-2.083,15.083-6.25
			C471.417,454.75,471.417,441.25,463.083,432.917z M181.333,320c-76.458,0-138.667-62.208-138.667-138.667
			c0-76.458,62.208-138.667,138.667-138.667S320,104.875,320,181.333C320,257.792,257.792,320,181.333,320z"/>
	</g>
</g>
<g>
</g>
<g>
</g>
<g>
</g>
<g>
</g>
<g>
</g>
<g>
</g>
<g>
</g>
<g>
</g>
<g>
</g>
<g>
</g>
<g>
</g>
<g>
</g>
<g>
</g>
<g>
</g>
<g>
</g>
</svg>
